<svg viewBox="0 0 48 48" fill="none" xmlns="http://www.w3.org/2000/svg">
  <!-- Cart body/basket -->
  <path d="M14 16 L36 16 L33 30 C33 31 32 32 31 32 L17 32 C16 32 15 31 15 30 Z" fill="#7C3AED"/>
  <!-- Cart basket top highlight -->
  <rect x="14" y="16" width="22" height="5" rx="1" fill="#8B5CF6"/>
  <!-- Items in cart -->
  <rect x="18" y="19" width="5" height="8" rx="1" fill="#A78BFA"/>
  <rect x="25" y="19" width="5" height="5" rx="1" fill="#C4B5FD"/>
  <rect x="18" y="19" width="12" height="3" rx="1" fill="#DDD6FE"/>
  <!-- Handle -->
  <path d="M14 16 L10 8" stroke="#4C1D95" stroke-width="3" stroke-linecap="round"/>
  <path d="M10 8 L6 8" stroke="#4C1D95" stroke-width="3" stroke-linecap="round"/>
  <!-- Wheels -->
  <circle cx="20" cy="37" r="5" fill="#4C1D95"/>
  <circle cx="20" cy="37" r="2.5" fill="#7C3AED"/>
  <circle cx="30" cy="37" r="5" fill="#4C1D95"/>
  <circle cx="30" cy="37" r="2.5" fill="#7C3AED"/>
  <!-- Price tag on cart -->
  <rect x="36" y="8" width="10" height="8" rx="2" fill="#F59E0B"/>
  <circle cx="37" cy="11" r="1.5" fill="#FEF3C7"/>
  <line x1="40" y1="11" x2="44" y2="11" stroke="#FEF3C7" stroke-width="1.5" stroke-linecap="round"/>
  <line x1="40" y1="13.5" x2="43" y2="13.5" stroke="#FEF3C7" stroke-width="1.5" stroke-linecap="round"/>
</svg>
