<svg viewBox="0 0 48 48" fill="none" xmlns="http://www.w3.org/2000/svg">
  <!-- Building shadow base -->
  <rect x="7" y="10" width="34" height="38" rx="3" fill="#C7D2FE"/>
  <!-- Main building body -->
  <rect x="6" y="9" width="34" height="38" rx="3" fill="#4F46E5"/>
  <!-- Building facade (lighter) -->
  <rect x="6" y="12" width="32" height="35" rx="2" fill="#6366F1"/>
  <!-- Roof/top floor -->
  <rect x="4" y="7" width="38" height="7" rx="3" fill="#3730A3"/>
  <!-- Windows row 1 -->
  <rect x="10" y="17" width="7" height="7" rx="1.5" fill="#A5B4FC"/>
  <rect x="21" y="17" width="7" height="7" rx="1.5" fill="#A5B4FC"/>
  <rect x="32" y="17" width="4" height="7" rx="1.5" fill="#A5B4FC"/>
  <!-- Windows row 2 -->
  <rect x="10" y="28" width="7" height="7" rx="1.5" fill="#C7D2FE"/>
  <rect x="21" y="28" width="7" height="7" rx="1.5" fill="#C7D2FE"/>
  <rect x="32" y="28" width="4" height="7" rx="1.5" fill="#C7D2FE"/>
  <!-- Door -->
  <rect x="19" y="36" width="10" height="11" rx="2" fill="#312E81"/>
  <rect x="20" y="37" width="4" height="10" rx="1" fill="#3730A3"/>
  <!-- Door handle -->
  <circle cx="27" cy="42" r="1.5" fill="#C7D2FE"/>
  <!-- Flag pole -->
  <rect x="22.5" y="1" width="2.5" height="8" fill="#1E1B4B"/>
  <!-- Flag -->
  <path d="M25 1.5 L34 4.5 L25 7.5 Z" fill="#EF4444"/>
</svg>
