<svg viewBox="0 0 48 48" fill="none" xmlns="http://www.w3.org/2000/svg">
  <!-- Document shadow/depth -->
  <rect x="10" y="6" width="32" height="40" rx="4" fill="#FDE68A"/>
  <!-- Document body -->
  <rect x="8" y="4" width="32" height="40" rx="4" fill="#FEF3C7"/>
  <!-- Header bar -->
  <rect x="8" y="4" width="32" height="12" rx="4" fill="#D97706"/>
  <!-- Header corners fix -->
  <rect x="8" y="12" width="32" height="4" fill="#D97706"/>
  <!-- Corner fold -->
  <path d="M32 4 L40 4 L40 12 L32 12 Z" fill="#92400E" opacity="0.4"/>
  <path d="M32 4 L40 12 L32 12 Z" fill="#B45309"/>
  <!-- Header text lines -->
  <rect x="12" y="7" width="14" height="2.5" rx="1.25" fill="#FEF3C7" opacity="0.8"/>
  <rect x="12" y="11.5" width="9" height="2" rx="1" fill="#FEF3C7" opacity="0.6"/>
  <!-- Content lines -->
  <rect x="12" y="21" width="24" height="2.5" rx="1.25" fill="#92400E" opacity="0.5"/>
  <rect x="12" y="27" width="18" height="2.5" rx="1.25" fill="#92400E" opacity="0.5"/>
  <rect x="12" y="33" width="21" height="2.5" rx="1.25" fill="#92400E" opacity="0.5"/>
  <!-- Amount line -->
  <rect x="12" y="39" width="24" height="3" rx="1.5" fill="#D97706"/>
</svg>
