<svg viewBox="0 0 48 48" fill="none" xmlns="http://www.w3.org/2000/svg">
  <!-- Clipboard base -->
  <rect x="6" y="9" width="36" height="38" rx="4" fill="#E0E7FF"/>
  <!-- Clipboard top stripe -->
  <rect x="6" y="9" width="36" height="8" rx="4" fill="#4F46E5"/>
  <rect x="6" y="14" width="36" height="3" fill="#4F46E5"/>
  <!-- Clip body -->
  <rect x="18" y="5" width="12" height="10" rx="5" fill="#3730A3"/>
  <!-- Clip hole -->
  <rect x="21" y="7" width="6" height="6" rx="3" fill="#6366F1"/>
  <!-- Checkbox row 1 (checked) -->
  <rect x="11" y="23" width="6" height="6" rx="1.5" fill="#4F46E5"/>
  <path d="M12.5 26 L14 28 L17 23.5" stroke="white" stroke-width="1.75" stroke-linecap="round" stroke-linejoin="round"/>
  <rect x="21" y="24.5" width="17" height="2.5" rx="1.25" fill="#4F46E5" opacity="0.4"/>
  <!-- Checkbox row 2 (checked) -->
  <rect x="11" y="32" width="6" height="6" rx="1.5" fill="#4F46E5"/>
  <path d="M12.5 35 L14 37 L17 32.5" stroke="white" stroke-width="1.75" stroke-linecap="round" stroke-linejoin="round"/>
  <rect x="21" y="33.5" width="14" height="2.5" rx="1.25" fill="#4F46E5" opacity="0.4"/>
  <!-- Checkbox row 3 (unchecked) -->
  <rect x="11" y="41" width="6" height="6" rx="1.5" fill="white" stroke="#6366F1" stroke-width="1.5"/>
  <rect x="21" y="42.5" width="18" height="2.5" rx="1.25" fill="#4F46E5" opacity="0.4"/>
</svg>
