<svg viewBox="0 0 48 48" fill="none" xmlns="http://www.w3.org/2000/svg">
  <!-- Road/ground -->
  <rect x="1" y="38" width="46" height="3" rx="1.5" fill="#E2E8F0"/>
  <!-- Cargo body -->
  <rect x="1" y="16" width="30" height="22" rx="3" fill="#EA580C"/>
  <!-- Cargo highlight top -->
  <rect x="1" y="16" width="30" height="5" rx="3" fill="#F97316"/>
  <!-- Cargo door lines -->
  <line x1="16" y1="16" x2="16" y2="38" stroke="#C2410C" stroke-width="1.5"/>
  <!-- Cab -->
  <path d="M31 22 L31 38 L47 38 L47 28 C47 26 45 22 43 22 Z" fill="#EA580C"/>
  <!-- Cab top/roof -->
  <rect x="31" y="20" width="12" height="4" rx="2" fill="#C2410C"/>
  <!-- Windshield -->
  <path d="M33 24 L33 33 L45 33 L45 28 C45 26 43.5 24 42 24 Z" fill="#BAE6FD"/>
  <!-- Windshield glare -->
  <path d="M35 26 L36 24.5" stroke="white" stroke-width="1.5" stroke-linecap="round" opacity="0.8"/>
  <!-- Headlight -->
  <circle cx="45" cy="35" r="2.5" fill="#FDE68A"/>
  <!-- Wheels -->
  <circle cx="10" cy="38" r="6" fill="#1E293B"/>
  <circle cx="10" cy="38" r="3.5" fill="#475569"/>
  <circle cx="10" cy="38" r="1.5" fill="#94A3B8"/>
  <circle cx="24" cy="38" r="6" fill="#1E293B"/>
  <circle cx="24" cy="38" r="3.5" fill="#475569"/>
  <circle cx="24" cy="38" r="1.5" fill="#94A3B8"/>
  <circle cx="40" cy="38" r="6" fill="#1E293B"/>
  <circle cx="40" cy="38" r="3.5" fill="#475569"/>
  <circle cx="40" cy="38" r="1.5" fill="#94A3B8"/>
</svg>
